HIERARCHY
ROOT Hips
{
	OFFSET 0.000000 95.729000 0.000000
	CHANNELS 6 Xposition Yposition Zposition Yrotation Xrotation Zrotation
	JOINT RightUpLeg
	{
		OFFSET -9.625000 -1.639000 0.000000
		CHANNELS 3 Yrotation Xrotation Zrotation
		JOINT RightLeg
		{
			OFFSET 0.000000 -41.481000 0.000000
			CHANNELS 3 Yrotation Xrotation Zrotation
			JOINT RightFoot
			{
				OFFSET 0.000000 -43.120000 0.000000
				CHANNELS 3 Yrotation Xrotation Zrotation
				End Site
				{
					OFFSET 0.000000 -7.850000 17.850000
				}
			}
		}
	}
	JOINT LeftUpLeg
	{
		OFFSET 9.625000 -1.639000 0.000000
		CHANNELS 3 Yrotation Xrotation Zrotation
		JOINT LeftLeg
		{
			OFFSET 0.000000 -43.120000 0.000000
			CHANNELS 3 Yrotation Xrotation Zrotation
			JOINT LeftFoot
			{
				OFFSET 0.000000 -43.120000 0.000000
				CHANNELS 3 Yrotation Xrotation Zrotation
				End Site
				{
					OFFSET 0.000000 -7.850000 17.850000
				}
			}
		}
	}
	JOINT Spine
	{
		OFFSET 0.000000 16.395000 0.000000
		CHANNELS 3 Yrotation Xrotation Zrotation
		JOINT Spine1
		{
			OFFSET 0.000000 10.023000 0.000000
			CHANNELS 3 Yrotation Xrotation Zrotation
			JOINT Spine2
			{
				OFFSET 0.000000 10.437000 0.000000
				CHANNELS 3 Yrotation Xrotation Zrotation
				JOINT Spine3
				{
					OFFSET 0.000000 10.023000 0.000000
					CHANNELS 3 Yrotation Xrotation Zrotation
					JOINT Neck
					{
						OFFSET 0.000000 10.713000 0.000000
						CHANNELS 3 Yrotation Xrotation Zrotation
						JOINT Head
						{
							OFFSET 0.000000 9.720000 0.000000
							CHANNELS 3 Yrotation Xrotation Zrotation
							End Site
							{
								OFFSET 0.000000 16.450000 0.000000
							}
						}
					}
					JOINT RightShoulder
					{
						OFFSET -3.275000 7.142000 0.000000
						CHANNELS 3 Yrotation Xrotation Zrotation
						JOINT RightArm
						{
							OFFSET -13.100000 0.000000 0.000000
							CHANNELS 3 Yrotation Xrotation Zrotation
							JOINT RightForeArm
							{
								OFFSET -27.250000 0.000000 0.000000
								CHANNELS 3 Yrotation Xrotation Zrotation
								JOINT RightHand
								{
									OFFSET -26.750000 0.000000 0.000000
									CHANNELS 3 Yrotation Xrotation Zrotation
									End Site
									{
										OFFSET -3.479000 0.532000 0.778000
									}
								}
							}
						}
					}
					JOINT LeftShoulder
					{
						OFFSET 3.275000 7.142000 0.000000
						CHANNELS 3 Yrotation Xrotation Zrotation
						JOINT LeftArm
						{
							OFFSET 13.100000 0.000000 0.000000
							CHANNELS 3 Yrotation Xrotation Zrotation
							JOINT LeftForeArm
							{
								OFFSET 27.250000 0.000000 0.000000
								CHANNELS 3 Yrotation Xrotation Zrotation
								JOINT LeftHand
								{
									OFFSET 26.750000 0.000000 0.000000
									CHANNELS 3 Yrotation Xrotation Zrotation
									End Site
									{
										OFFSET 3.479000 0.532000 0.778000
									}
								}
							}
						}
					}
				}
			}
		}
	}
}
MOTION
Frames: 30
Frame Time: 0.010000
76.95 58.75 -3.45 -141.0 6.9 10.88 -13.13 -17.1 9.78 -180.0 68.07 -180.0 30.44 -14.17 3.94 -37.09 -73.37 49.87 180.0 80.48 180.0 -9.27 -5.5 -10.42 2.7 6.83 -3.19 0.65 1.74 -0.83 1.02 2.93 -1.36 -2.24 0.18 0.43 -12.13 0.13 1.05 -36.07 9.15 4.79 -6.71 1.02 -5.15 -0.7 -49.86 54.37 77.34 57.25 -14.22 -27.48 20.87 -36.1 8.5 -0.67 -12.07 -18.06 -10.54 -57.82 -61.05 22.29 -5.27 6.32 -32.88 45.85
76.95 58.76 -3.6 -141.03 6.86 10.88 -13.22 -16.94 9.88 180.0 68.29 -180.0 30.33 -14.04 3.92 -36.95 -73.21 49.78 -180.0 80.47 -180.0 -9.27 -5.5 -10.4 2.48 6.79 -3.25 0.6 1.73 -0.84 0.93 2.9 -1.38 -2.25 0.17 0.42 -12.26 0.11 1.05 -36.08 8.87 4.77 -7.29 1.19 -5.04 -3.23 -48.13 56.57 77.64 57.02 -13.71 -27.82 20.13 -37.18 8.74 -0.72 -12.1 -18.16 -10.6 -57.77 -60.9 22.33 -5.32 6.19 -32.77 45.84
76.95 58.77 -3.76 -141.05 6.8 10.87 -13.35 -16.75 9.94 -180.0 68.48 -180.0 30.25 -13.89 3.84 -36.83 -73.04 49.68 180.0 80.46 180.0 -9.29 -5.49 -10.39 2.48 6.82 -3.24 0.6 1.74 -0.84 0.93 2.92 -1.38 -2.26 0.16 0.42 -12.6 0.1 1.06 -36.05 8.71 4.75 -8.15 1.28 -5.02 -5.55 -46.16 58.63 78.1 56.77 -12.79 -27.18 18.86 -39.13 8.36 -1.08 -12.26 -17.96 -10.45 -57.69 -60.77 22.36 -5.34 6.16 -32.7 45.88
76.95 58.78 -3.91 -141.07 6.76 10.86 -13.48 -16.58 10.01 180.0 68.66 180.0 30.16 -13.76 3.77 -36.74 -72.87 49.63 180.0 80.45 180.0 -9.33 -5.49 -10.37 2.49 6.84 -3.24 0.6 1.74 -0.84 0.93 2.93 -1.38 -2.27 0.15 0.42 -12.88 0.1 1.07 -36.02 8.6 4.73 -8.81 1.31 -5.01 -7.55 -43.89 60.35 80.73 56.65 -11.89 -28.8 19.2 -38.47 8.16 -1.24 -12.31 -17.96 -10.47 -57.67 -60.62 22.41 -5.33 6.21 -32.72 45.9
76.95 58.78 -4.04 -141.09 6.75 10.85 -13.59 -16.45 10.1 180.0 68.84 180.0 30.05 -13.64 3.73 -36.71 -72.74 49.64 -180.0 80.43 -180.0 -9.37 -5.52 -10.38 2.5 6.85 -3.23 0.6 1.74 -0.84 0.94 2.93 -1.38 -2.27 0.15 0.42 -13.15 0.09 1.09 -35.98 8.52 4.76 -9.37 1.3 -5.03 -9.09 -41.45 61.89 79.07 56.8 -10.62 -28.67 16.99 -41.57 7.93 -1.37 -12.31 -17.82 -10.48 -57.67 -60.56 22.45 -5.36 6.15 -32.65 45.9
76.94 58.78 -4.19 -141.15 6.74 10.85 -13.67 -16.3 10.2 180.0 69.01 180.0 29.96 -13.52 3.7 -36.67 -72.6 49.64 -180.0 80.39 -180.0 -9.38 -5.47 -10.32 2.54 6.87 -3.24 0.61 1.75 -0.84 0.95 2.94 -1.38 -2.28 0.14 0.42 -13.44 0.08 1.12 -35.94 8.42 4.79 -9.91 1.19 -5.11 -10.49 -37.76 63.71 79.37 56.85 -9.3 -29.09 15.28 -43.3 7.63 -1.48 -12.31 -17.75 -10.61 -57.63 -60.3 22.42 -5.31 6.14 -32.62 45.91
76.96 58.77 -4.29 -141.23 6.71 10.88 -13.68 -16.18 10.2 -180.0 69.12 -180.0 29.93 -13.45 3.63 -36.52 -72.49 49.52 -180.0 80.38 -180.0 -9.36 -5.45 -10.31 2.58 6.89 -3.26 0.62 1.76 -0.84 0.97 2.95 -1.39 -2.29 0.13 0.42 -13.63 0.07 1.13 -35.9 8.34 4.82 -10.19 1.1 -5.03 -11.09 -34.95 64.65 79.96 56.73 -7.71 -29.4 13.85 -44.73 7.48 -1.57 -12.31 -17.74 -10.62 -57.59 -60.12 22.43 -5.25 6.2 -32.73 45.93
76.98 58.76 -4.38 -141.28 6.68 10.92 -13.75 -16.07 10.19 180.0 69.2 180.0 29.88 -13.38 3.54 -36.4 -72.39 49.41 180.0 80.38 180.0 -9.34 -5.43 -10.28 1.48 6.72 -3.43 0.35 1.7 -0.87 0.51 2.84 -1.45 -2.23 0.15 0.41 -11.66 0.1 1.01 -36.18 8.42 4.81 -8.57 1.32 -5.04 -11.35 -32.44 65.33 80.64 56.79 -5.62 -29.76 12.31 -46.93 9.16 -1.44 -12.29 -17.68 -10.67 -57.58 -59.9 22.41 -5.26 6.19 -32.68 45.87
77.01 58.76 -4.46 -141.32 6.66 10.97 -13.81 -16.03 10.21 180.0 69.25 180.0 29.78 -13.32 3.47 -36.27 -72.31 49.27 -180.0 80.38 -180.0 -9.31 -5.42 -10.23 1.44 6.7 -3.43 0.34 1.69 -0.87 0.49 2.83 -1.44 -2.23 0.15 0.41 -11.68 0.1 1.0 -36.2 8.33 4.77 -8.66 1.37 -5.09 -11.16 -30.04 65.82 81.25 57.12 -3.34 -30.31 10.67 -48.95 9.12 -1.46 -12.28 -17.62 -10.67 -57.6 -59.7 22.38 -5.23 6.14 -32.68 45.83
77.03 58.76 -4.53 -141.4 6.6 11.0 -13.94 -15.91 10.19 180.0 69.29 180.0 29.67 -13.23 3.35 -36.01 -72.15 49.03 180.0 80.41 180.0 -9.28 -5.48 -10.34 1.42 6.68 -3.41 0.33 1.69 -0.87 0.49 2.82 -1.44 -2.23 0.15 0.41 -11.64 0.11 0.98 -36.23 8.29 4.68 -8.69 1.44 -5.19 -10.29 -26.94 66.18 82.22 57.46 0.08 -30.04 9.44 -48.21 9.13 -1.47 -12.25 -17.69 -10.61 -57.62 -59.4 22.4 -5.11 6.29 -32.84 45.69
77.06 58.76 -4.6 -141.44 6.58 11.02 -14.04 -15.87 10.21 -180.0 69.32 -180.0 29.61 -13.14 3.26 -35.97 -72.1 48.99 180.0 80.4 180.0 -9.27 -5.38 -10.16 1.43 6.7 -3.4 0.33 1.69 -0.87 0.49 2.83 -1.43 -2.23 0.15 0.41 -11.59 0.1 0.98 -36.23 8.24 4.71 -8.7 1.68 -4.9 -9.39 -25.33 66.02 83.15 57.97 2.9 -30.01 8.38 -48.83 9.14 -1.55 -12.16 -17.65 -10.65 -57.64 -59.21 22.44 -5.18 6.27 -32.87 45.59
77.06 58.76 -4.64 -141.47 6.56 11.06 -14.14 -15.83 10.25 -180.0 69.35 180.0 29.44 -13.14 3.24 -35.82 -72.06 48.83 180.0 80.39 180.0 -9.25 -5.37 -10.13 1.45 6.77 -3.27 0.34 1.71 -0.83 0.5 2.86 -1.38 -2.23 0.14 0.4 -11.51 0.09 0.96 -36.27 8.01 4.64 -8.66 1.75 -5.01 -8.53 -23.9 65.99 84.12 58.38 5.62 -29.92 7.31 -49.37 9.08 -1.63 -12.27 -17.61 -10.66 -57.7 -59.03 22.4 -5.15 6.21 -32.87 45.53
77.05 58.76 -4.67 -141.5 6.49 11.06 -14.25 -15.77 10.28 180.0 69.35 180.0 29.36 -13.09 3.21 -35.66 -71.97 48.66 -180.0 80.39 -180.0 -9.24 -5.36 -10.11 1.48 6.78 -3.18 0.35 1.71 -0.81 0.51 2.86 -1.34 -2.22 0.14 0.39 -11.39 0.1 0.94 -36.31 7.98 4.55 -8.52 1.92 -5.09 -8.71 -24.03 65.94 87.06 58.03 11.81 -29.93 6.16 -50.09 9.03 -1.58 -12.24 -17.61 -10.62 -57.77 -58.92 22.36 -5.08 6.32 -32.89 45.42
77.05 58.77 -4.7 -141.51 6.43 11.07 -14.4 -15.73 10.35 180.0 69.34 180.0 29.25 -13.09 3.16 -35.5 -71.9 48.49 180.0 80.39 180.0 -9.24 -5.35 -10.08 1.52 6.81 -3.05 0.36 1.72 -0.78 0.54 2.88 -1.29 -2.22 0.15 0.39 -11.22 0.11 0.91 -36.36 7.94 4.45 -8.51 1.97 -5.18 -8.12 -23.09 65.89 91.03 57.57 18.27 -29.86 5.11 -50.37 9.01 -1.58 -12.19 -17.55 -10.58 -57.81 -59.07 22.17 -5.22 6.69 -32.76 45.2
77.05 58.79 -4.72 -141.51 6.4 11.09 -14.5 -15.72 10.39 180.0 69.32 180.0 29.16 -13.1 3.14 -35.35 -71.86 48.32 -180.0 80.42 -180.0 -9.23 -5.36 -10.07 1.57 6.85 -2.94 0.37 1.73 -0.75 0.56 2.9 -1.24 -2.22 0.15 0.38 -11.13 0.1 0.9 -36.38 7.85 4.4 -8.3 2.2 -4.96 -6.34 -21.15 65.38 92.92 57.81 20.05 -29.86 4.55 -50.41 8.98 -1.57 -12.2 -17.51 -10.56 -57.84 -59.1 22.16 -5.31 6.84 -32.83 45.09
77.05 58.8 -4.73 -141.51 6.36 11.11 -14.61 -15.71 10.41 -180.0 69.3 -180.0 29.1 -13.07 3.09 -35.18 -71.81 48.13 180.0 80.45 180.0 -9.23 -5.36 -10.07 1.63 6.89 -2.82 0.39 1.74 -0.72 0.59 2.91 -1.2 -2.22 0.15 0.37 -11.06 0.11 0.88 -36.42 7.76 4.32 -8.14 2.4 -4.91 -3.77 -19.9 64.5 93.95 57.82 21.33 -29.71 4.14 -50.37 8.95 -1.55 -12.2 -17.48 -10.51 -57.9 -58.56 22.5 -5.05 6.57 -33.23 44.89
77.06 58.81 -4.74 -141.5 6.35 11.14 -14.72 -15.71 10.45 180.0 69.29 180.0 28.98 -13.09 3.06 -35.06 -71.79 48.0 180.0 80.48 180.0 -9.24 -5.37 -10.08 1.66 6.93 -2.71 0.4 1.75 -0.69 0.6 2.93 -1.15 -2.21 0.15 0.37 -10.95 0.11 0.86 -36.45 7.66 4.26 -7.97 2.55 -4.79 -1.61 -19.35 63.68 96.23 57.6 24.01 -29.66 3.9 -50.33 8.9 -1.57 -12.34 -17.37 -10.42 -57.83 -58.53 22.51 -5.01 6.7 -33.35 44.75
77.06 58.82 -4.75 -141.51 6.31 11.16 -14.88 -15.73 10.52 180.0 69.23 180.0 28.88 -13.04 2.98 -34.89 -71.75 47.84 -180.0 80.5 -180.0 -9.26 -5.39 -10.11 1.7 6.97 -2.63 0.41 1.76 -0.68 0.62 2.95 -1.12 -2.21 0.15 0.37 -10.86 0.11 0.85 -36.46 7.71 4.24 -7.64 2.82 -4.48 1.84 -18.88 62.51 98.86 57.56 26.75 -29.55 3.84 -50.04 8.92 -1.52 -12.18 -17.18 -10.42 -57.91 -58.52 22.47 -5.0 6.8 -33.42 44.6
77.06 58.82 -4.75 -141.54 6.27 11.17 -14.99 -15.72 10.57 -180.0 69.2 -180.0 28.81 -12.97 2.92 -34.72 -71.72 47.69 180.0 80.51 180.0 -9.27 -5.4 -10.11 1.81 7.01 -2.46 0.44 1.77 -0.64 0.68 2.97 -1.05 -2.22 0.15 0.36 -10.99 0.11 0.84 -36.48 7.61 4.12 -7.43 2.98 -4.4 4.84 -18.63 61.62 100.23 57.82 27.91 -30.59 3.6 -49.72 8.83 -1.41 -12.14 -17.25 -10.57 -58.2 -58.27 22.56 -4.81 6.62 -33.4 44.47
77.06 58.83 -4.74 -141.58 6.22 11.18 -15.08 -15.71 10.62 180.0 69.18 180.0 28.74 -12.91 2.86 -34.54 -71.67 47.53 -180.0 80.51 -180.0 -9.29 -5.42 -10.18 1.91 7.05 -2.39 0.46 1.79 -0.62 0.72 2.99 -1.02 -2.22 0.15 0.36 -11.1 0.11 0.84 -36.48 7.61 4.08 -7.12 3.2 -4.17 7.94 -18.59 60.74 101.45 57.98 28.72 -31.92 3.57 -49.17 8.8 -1.38 -12.07 -17.24 -10.56 -58.29 -58.32 22.53 -4.84 6.98 -33.4 44.4
77.06 58.84 -4.72 -141.61 6.16 11.19 -15.2 -15.7 10.64 -180.0 69.17 -180.0 28.69 -12.8 2.77 -34.33 -71.62 47.32 180.0 80.54 180.0 -9.29 -5.43 -10.19 2.02 7.09 -2.33 0.49 1.8 -0.61 0.77 3.0 -1.0 -2.22 0.16 0.36 -11.22 0.11 0.85 -36.45 7.74 4.13 -6.8 3.4 -3.92 11.04 -18.86 59.91 102.17 58.1 29.08 -29.39 4.64 -48.68 8.77 -1.38 -11.99 -17.1 -10.5 -58.15 -58.3 22.43 -4.9 6.85 -33.5 44.2
77.06 58.85 -4.7 -141.61 6.14 11.2 -15.33 -15.72 10.69 -180.0 69.15 180.0 28.6 -12.7 2.7 -34.24 -71.62 47.22 -180.0 80.55 -180.0 -9.29 -5.45 -10.19 2.12 7.08 -2.29 0.52 1.79 -0.6 0.81 3.0 -0.98 -2.23 0.16 0.36 -11.39 0.12 0.85 -36.43 7.77 4.09 -6.44 3.53 -3.63 11.79 -18.97 59.39 106.63 57.46 32.25 -29.38 5.12 -48.17 8.75 -1.35 -11.92 -17.1 -10.49 -58.21 -58.24 22.38 -4.87 7.03 -33.54 44.2
77.06 58.86 -4.68 -141.59 5.99 11.21 -15.52 -15.61 10.75 -180.0 69.14 -180.0 28.5 -12.61 2.63 -33.9 -71.53 46.84 -180.0 80.57 -180.0 -9.27 -5.45 -10.19 2.17 7.14 -2.27 0.53 1.81 -0.59 0.83 3.03 -0.98 -2.23 0.16 0.37 -11.51 0.12 0.88 -36.39 7.95 4.18 -5.79 3.65 -3.17 18.66 -19.91 57.67 102.85 58.97 28.76 -29.57 5.93 -47.27 8.74 -1.33 -11.88 -16.96 -10.54 -58.22 -58.19 22.33 -4.85 7.08 -33.52 44.16
77.06 58.87 -4.68 -141.6 5.92 11.21 -15.63 -15.56 10.78 -180.0 69.13 180.0 28.47 -12.55 2.56 -33.76 -71.48 46.69 180.0 80.58 180.0 -9.28 -5.45 -10.18 2.16 7.18 -2.27 0.52 1.82 -0.59 0.83 3.05 -0.97 -2.23 0.16 0.38 -11.5 0.11 0.89 -36.37 7.96 4.24 -5.12 3.63 -2.84 21.95 -20.47 56.61 98.24 59.87 25.28 -27.84 6.79 -47.61 9.04 -1.44 -11.79 -17.01 -10.5 -58.36 -58.14 22.31 -4.85 7.08 -33.48 44.12
77.06 58.87 -4.67 -141.58 5.85 11.21 -15.69 -15.52 10.85 180.0 69.13 180.0 28.42 -12.51 2.56 -33.54 -71.45 46.49 180.0 80.59 180.0 -9.24 -5.46 -10.19 2.4 7.12 -2.26 0.58 1.81 -0.59 0.92 3.03 -0.98 -2.24 0.16 0.38 -11.91 0.12 0.91 -36.32 8.09 4.22 -4.8 3.73 -2.48 24.97 -21.15 55.66 102.13 60.24 27.3 -29.95 7.33 -45.3 8.85 -1.37 -11.66 -16.98 -10.48 -58.45 -58.1 22.27 -4.86 7.1 -33.48 44.15
77.06 58.88 -4.67 -141.55 5.78 11.2 -15.81 -15.48 10.91 180.0 69.12 180.0 28.39 -12.44 2.53 -33.42 -71.41 46.35 180.0 80.61 180.0 -9.24 -5.46 -10.2 2.6 7.07 -2.32 0.63 1.8 -0.61 1.01 3.02 -1.0 -2.25 0.16 0.38 -12.27 0.12 0.94 -36.25 8.21 4.27 -4.39 3.81 -2.02 27.78 -21.99 54.7 101.68 60.98 26.63 -30.21 8.22 -43.98 8.74 -1.38 -11.5 -16.99 -10.41 -58.54 -58.14 22.34 -4.98 7.06 -33.54 44.27
77.07 58.92 -4.67 -141.47 5.7 11.2 -16.0 -15.45 11.02 -180.0 69.13 -180.0 28.34 -12.35 2.49 -33.22 -71.37 46.12 180.0 80.68 180.0 -9.24 -5.44 -10.2 2.6 7.09 -2.32 0.63 1.8 -0.61 1.01 3.02 -1.0 -2.25 0.16 0.39 -12.29 0.11 0.95 -36.24 8.19 4.31 -3.37 3.63 -1.67 31.16 -23.1 53.49 99.05 62.01 24.57 -29.98 9.23 -43.4 9.04 -1.53 -11.53 -17.0 -10.33 -58.65 -58.01 22.21 -4.87 7.0 -33.36 44.2
77.08 58.95 -4.67 -141.41 5.65 11.21 -16.15 -15.42 11.1 -180.0 69.15 -180.0 28.3 -12.27 2.48 -33.03 -71.35 45.89 180.0 80.74 180.0 -9.23 -5.42 -10.21 2.55 7.12 -2.32 0.62 1.81 -0.61 0.99 3.03 -1.0 -2.24 0.15 0.39 -12.03 0.1 0.96 -36.26 8.05 4.42 -2.49 3.38 -1.47 33.35 -23.77 52.73 96.53 62.78 22.64 -29.92 10.03 -43.24 9.36 -1.67 -11.61 -17.22 -10.15 -58.67 -57.93 22.1 -4.76 7.02 -33.24 44.11
77.08 58.98 -4.66 -141.33 5.62 11.23 -16.3 -15.43 11.16 180.0 69.15 180.0 28.31 -12.21 2.45 -32.85 -71.35 45.67 180.0 80.8 180.0 -9.22 -5.42 -10.22 3.04 6.95 -2.52 0.75 1.77 -0.66 1.19 2.98 -1.09 -2.27 0.16 0.4 -12.8 0.1 1.02 -36.11 8.41 4.51 -2.43 3.47 -0.95 33.35 -23.93 52.58 100.88 63.36 24.02 -30.99 10.86 -40.88 8.78 -1.54 -11.18 -17.01 -10.25 -58.82 -57.96 22.24 -4.93 6.98 -33.3 44.26
77.08 59.01 -4.69 -141.22 5.61 11.26 -16.45 -15.47 11.24 -180.0 69.16 -180.0 28.31 -12.16 2.46 -32.77 -71.37 45.53 -180.0 80.87 -180.0 -9.25 -5.4 -10.2 3.24 6.89 -2.64 0.79 1.76 -0.7 1.27 2.97 -1.14 -2.27 0.15 0.41 -13.06 0.09 1.06 -36.04 8.52 4.61 -1.99 3.37 -0.78 36.32 -25.89 51.51 96.57 64.0 21.05 -31.42 11.48 -39.24 8.59 -1.54 -10.95 -16.88 -10.28 -58.95 -57.96 22.26 -4.92 6.97 -33.25 44.32
